<?xml version="1.0" encoding="utf-8"?>
<!-- Generator: Adobe Illustrator 27.1.1, SVG Export Plug-In . SVG Version: 6.00 Build 0)  -->
<svg version="1.1" id="Layer_1" xmlns="http://www.w3.org/2000/svg" xmlns:xlink="http://www.w3.org/1999/xlink" x="0px" y="0px"
	 viewBox="0 0 1163.5 277.2" style="enable-background:new 0 0 1163.5 277.2;" xml:space="preserve">
<style type="text/css">
	.st0{fill:#DA763E;}
</style>
<g>
	<path class="st0" d="M186.7,216c1.1,0,1.5,0.5,1.5,1.6v36.5c0,1.1-0.5,1.5-1.5,1.5h-0.5c-1.1,0-1.5-0.5-1.5-1.5V238H161v16.1
		c0,1.1-0.5,1.5-1.5,1.5h-0.5c-1.1,0-1.5-0.5-1.5-1.5v-36.5c0-1.1,0.5-1.6,1.5-1.6h0.5c1.1,0,1.5,0.5,1.5,1.6v17.3h23.7v-17.3
		c0-1.1,0.5-1.6,1.5-1.6H186.7z"/>
	<path class="st0" d="M225,235.9v16.4c0,1.1,0.5,1.5,1.4,1.5c0.3,0,0.7,0,1.1-0.1c0,1.4-0.9,2.5-2.7,2.5c-2.4,0-3.2-1.8-3.2-3.7
		v-2.2c-1.7,2.3-3.9,5.9-9.8,5.9c-6,0-8.9-4.1-8.9-8.7c0-5.4,4.4-10.6,18.7-10v-1.6c0-3.9-2.7-6.6-7.5-6.6c-4.6,0-7,2.2-7,4.8
		c-0.9,0-2.4-0.3-2.4-1.8c0-3.1,3.7-5.9,9.3-5.9C220.2,226.3,225,229.4,225,235.9z M212.1,253.2c5.6,0,9.5-5,9.5-9.9v-3.4
		c-11.3-0.6-15.3,3-15.3,7.5C206.3,250.3,208.2,253.2,212.1,253.2z M207.4,223.6c-0.5,0.3-0.8,0.1-0.8-0.5V223
		c0-0.6,0.2-1.1,0.7-1.4l9.9-6.7c1.1-0.7,1.5-0.5,1.5,0.8v0.6c0,1.2-0.5,2-1.6,2.5L207.4,223.6z"/>
	<path class="st0" d="M240.2,213.1c1.1,0,1.5,0.5,1.5,1.5v16.5c1.8-2.9,4.8-4.8,8.8-4.8c7,0,12.8,4,12.8,15
		c0,10.6-6.3,14.9-13.4,14.9c-5,0-8.8-1.4-10.6-2.2c-0.7-0.3-1.1-0.5-1.1-1.7v-37.7c0-1,0.5-1.5,1.5-1.5H240.2z M241.8,243v8.4
		c0,0,4.3,1.9,8.7,1.9c5.1,0,9.3-3.4,9.3-12.1c0-8.9-4.6-12.1-9.8-12.1C244.5,229.2,241.8,234.1,241.8,243z"/>
	<path class="st0" d="M277.8,216c1.4,0,2.6,1.2,2.6,2.7c0,1.4-1.2,2.6-2.6,2.6c-1.5,0-2.7-1.2-2.7-2.6
		C275.1,217.2,276.3,216,277.8,216z M278,226.9c1.1,0,1.5,0.5,1.5,1.5v25.7c0,1.1-0.5,1.5-1.5,1.5h-0.4c-1.1,0-1.5-0.5-1.5-1.5
		v-25.7c0-1,0.5-1.5,1.5-1.5H278z"/>
	<path class="st0" d="M299.6,228.1l9.8-0.1c1.1,0,1.5,0.5,1.5,1.5c-0.1,1-0.5,1.5-1.5,1.5l-9.8-0.1v16c0,4.5,2.3,6.4,5.9,6.4
		c3.4,0,4.4-1.7,4.4-4.1c1.6,0,2.3,1.3,2.3,2.8c0,2-2.3,4.2-7.2,4.2c-5.6,0-8.9-2.8-8.9-9.3v-16.1l-3.4-0.1c-1.1,0-1.5-0.2-1.5-1.2
		c0-1.1,0.5-1.3,1.5-1.3l3.4-0.1v-7.4c0-1.1,0.5-1.5,1.5-1.5h0.4c1.1,0,1.5,0.5,1.5,1.5V228.1z"/>
	<path class="st0" d="M321.9,241.2c0-10.9,6.6-15,13.8-15c7.3,0,13.8,4,13.8,15c0,10.6-6.5,14.9-13.8,14.9
		C328.4,256.1,321.9,251.9,321.9,241.2z M325.3,241.2c0,8.7,5,11.8,10.4,11.8c5.4,0,10.4-3.1,10.4-11.8c0-8.9-5-11.8-10.4-11.8
		C330.3,229.4,325.3,232.3,325.3,241.2z"/>
	<path class="st0" d="M406.6,232.5c0,1.7-1.1,2.4-2.5,2.4c0-3.3-3.4-5.7-8.1-5.7c-5.4,0-10.4,3.1-10.4,12.1
		c0,8.7,5.5,12.1,10.9,12.1c4.6,0,8.3-2.2,8.3-5.9c1.3,0,2.4,1,2.4,2.1c0,3.9-4.9,6.6-11.2,6.6c-7.3,0-13.8-4.3-13.8-14.9
		c0-10.9,6.6-15,13.8-15C402.2,226.3,406.6,229.2,406.6,232.5z"/>
	<path class="st0" d="M417.4,241.2c0-10.9,6.6-15,13.8-15c7.3,0,13.8,4,13.8,15c0,10.6-6.5,14.9-13.8,14.9
		C423.9,256.1,417.4,251.9,417.4,241.2z M420.8,241.2c0,8.7,5,11.8,10.4,11.8c5.4,0,10.4-3.1,10.4-11.8c0-8.9-5-11.8-10.4-11.8
		C425.8,229.4,420.8,232.3,420.8,241.2z"/>
	<path class="st0" d="M480.7,254.1c0,1.1-0.5,1.5-1.6,1.5h-0.4c-1.1,0-1.5-0.5-1.5-1.5v-15.8c0-6.9-3-9-7.9-9c-5.3,0-9,5.5-9,13.8
		v11.1c0,1.1-0.5,1.5-1.5,1.5h-0.4c-1.1,0-1.5-0.5-1.5-1.5v-25.7c0-1.1,0.5-1.5,1.5-1.5h0.4c1.1,0,1.5,0.5,1.5,1.5v4.6
		c1.1-3.3,4.6-6.7,9.5-6.7c6.3,0,10.9,2.9,10.9,11.9V254.1z"/>
	<path class="st0" d="M501.2,256.1c-6.6,0-9.9-2.8-9.9-6.1c0-1.2,0.9-2.6,2.2-2.6c0,3.3,2.9,5.7,7.7,5.7c4.2,0,7.1-1.7,7.1-4.4
		c0-2.6-3.7-4.3-7.8-6.9c-5.5-3.4-7.9-5-7.9-8.5c0-3.5,3.4-7,9.2-7c5.6,0,8.8,2.8,8.8,6c0,1.5-1.1,2.4-2.6,2.4
		c0-3.4-2.4-5.7-6.2-5.7c-2.9,0-5.8,1.5-5.8,4.3c0,1.9,3,3.7,6.3,5.8c6.2,3.9,9.3,5.7,9.3,9.5C511.6,253.1,507.1,256.1,501.2,256.1z
		"/>
	<path class="st0" d="M546.8,232.5c0,1.7-1.1,2.4-2.5,2.4c0-3.3-3.4-5.7-8.1-5.7c-5.4,0-10.4,3.1-10.4,12.1
		c0,8.7,5.5,12.1,10.9,12.1c4.6,0,8.3-2.2,8.3-5.9c1.3,0,2.4,1,2.4,2.1c0,3.9-4.9,6.6-11.2,6.6c-7.3,0-13.8-4.3-13.8-14.9
		c0-10.9,6.6-15,13.8-15C542.4,226.3,546.8,229.2,546.8,232.5z"/>
	<path class="st0" d="M561.5,216c1.4,0,2.6,1.2,2.6,2.7c0,1.4-1.2,2.6-2.6,2.6c-1.5,0-2.7-1.2-2.7-2.6
		C558.9,217.2,560.1,216,561.5,216z M561.7,226.9c1.1,0,1.5,0.5,1.5,1.5v25.7c0,1.1-0.5,1.5-1.5,1.5h-0.4c-1.1,0-1.5-0.5-1.5-1.5
		v-25.7c0-1,0.5-1.5,1.5-1.5H561.7z"/>
	<path class="st0" d="M589.7,253.3c3.8,0,7.5-1.5,7.5-5.3c1.3,0,2.4,1.2,2.4,2.3c0,3.3-3.7,5.8-10.2,5.8c-7.3,0-13.5-4.5-13.5-14.9
		c0-10.3,6.7-15,13.2-15c7.2,0,11.2,4.1,11.2,9.3c0,5.7-5.4,8.2-12.7,8.2c-4.1,0-6.6-0.7-8.2-1.2C579.4,248.8,584,253.3,589.7,253.3
		z M579.4,240.1c1.3,0.4,4.3,1.1,7.9,1.1c5.7,0,9.7-1.5,9.7-5.6c0-3.5-2.8-6.4-7.7-6.4C583.6,229.2,579.4,234.6,579.4,240.1z"/>
	<path class="st0" d="M635.8,254.1c0,1.1-0.5,1.5-1.6,1.5h-0.4c-1.1,0-1.5-0.5-1.5-1.5v-15.8c0-6.9-3-9-7.9-9c-5.3,0-9,5.5-9,13.8
		v11.1c0,1.1-0.5,1.5-1.5,1.5h-0.4c-1.1,0-1.5-0.5-1.5-1.5v-25.7c0-1.1,0.5-1.5,1.5-1.5h0.4c1.1,0,1.5,0.5,1.5,1.5v4.6
		c1.1-3.3,4.6-6.7,9.5-6.7c6.3,0,10.9,2.9,10.9,11.9V254.1z"/>
	<path class="st0" d="M654.3,228.1l9.8-0.1c1.1,0,1.5,0.5,1.5,1.5c-0.1,1-0.5,1.5-1.5,1.5l-9.8-0.1v16c0,4.5,2.3,6.4,5.9,6.4
		c3.4,0,4.4-1.7,4.4-4.1c1.6,0,2.3,1.3,2.3,2.8c0,2-2.3,4.2-7.2,4.2c-5.6,0-8.9-2.8-8.9-9.3v-16.1l-3.4-0.1c-1.1,0-1.5-0.2-1.5-1.2
		c0-1.1,0.5-1.3,1.5-1.3l3.4-0.1v-7.4c0-1.1,0.5-1.5,1.5-1.5h0.4c1.1,0,1.5,0.5,1.5,1.5V228.1z"/>
	<path class="st0" d="M690.4,253.3c3.8,0,7.5-1.5,7.5-5.3c1.3,0,2.4,1.2,2.4,2.3c0,3.3-3.7,5.8-10.2,5.8c-7.3,0-13.5-4.5-13.5-14.9
		c0-10.3,6.7-15,13.2-15c7.2,0,11.2,4.1,11.2,9.3c0,5.7-5.4,8.2-12.7,8.2c-4.1,0-6.6-0.7-8.2-1.2
		C680.1,248.8,684.7,253.3,690.4,253.3z M680.1,240.1c1.3,0.4,4.3,1.1,7.9,1.1c5.7,0,9.7-1.5,9.7-5.6c0-3.5-2.8-6.4-7.7-6.4
		C684.3,229.2,680.1,234.6,680.1,240.1z"/>
</g>
<g>
	<path class="st0" d="M5.8,156.6V153c0-31.6,5.2-80.9,14.4-146.5c0.4-1.6,2.8-2.4,6-2.4c8,0,22,4.4,22,7.6
		c-6,42-14.4,93.3-14.4,137.3v6c0.4,15.6,3.2,22.4,8.4,22.4c19.2,0,66.8-107.7,66.8-162.1c0-4-0.4-7.6-0.8-11.2
		c17.6,2.8,24.4,16,24.4,33.6c0,56-69.2,160.9-105.7,160.9C15,198.6,6.6,186.6,5.8,156.6z"/>
	<path class="st0" d="M110.2,177l0.4-8c2.8-26.4,14.4-60.4,21.6-87.7c0.4-1.2,2.4-1.6,5.2-1.6c8,0,21.6,3.6,21.6,7.6v0.4
		c-5.2,17.6-10.4,35.2-14.8,53.6c-3.2,13.2-5.6,23.2-5.6,28.4c0,2.4,0.4,3.6,2,3.6c2.4,0,8.4-6.4,19.6-20.4
		c8.4-10.4,15.6-22,21.2-34.4c0.4-1.2,2-2,3.2-2l1.2,0.4c0.8,0.4,1.6,1.6,1.6,2.8l-0.4,1.2c-10,21.6-24.8,46.8-41.6,64
		c-8.8,8.8-16.8,13.2-22.8,13.2C115,198.2,110.2,191,110.2,177z M145.5,62.5c-2.8-2.8-4.4-7.2-4.4-12c0-9.2,5.6-20,13.2-22.4
		l3.2-0.4c3.2,0,6.4,1.2,8.4,3.6c2.8,2.8,4,7.2,4,11.6c0,9.2-5.2,20-12.8,22.4c-1.2,0.4-2.4,0.4-4,0.4
		C150.3,65.7,147.5,64.9,145.5,62.5z"/>
	<path class="st0" d="M166.3,190.2c-0.8-1.6-1.2-4-1.2-7.2c0-23.2,16-84.9,28.4-129.3h-10.8c-2,0-2.8-1.6-2.8-4c0-4,2.4-9.6,5.2-9.6
		h12l9.6-34c0.4-1.2,2.4-2,5.2-2c8,0,21.2,4,21.2,8v0.8l-7.6,27.2h12c2,0,2.4,1.6,2.4,3.6c0,4-2.8,10-5.2,10h-12.8
		c-8,28-17.6,64.4-23.2,92.1c-2.4,12-4,20-4,24.4c0,2,0.4,3.2,1.2,3.2c2.4,0,8-6.4,18.8-20c8.4-10.8,15.6-22.4,21.2-34.8
		c0.4-1.2,1.6-1.6,2.4-1.6l1.6,0.4c1.2,0.4,2,1.6,2,2.4l-0.4,1.2c-10,22-24.8,46.8-41.6,64c-5.6,5.6-14.8,13.2-22.8,13.2
		C172.7,198.2,169.1,196.2,166.3,190.2z"/>
	<path class="st0" d="M288.4,176.6l0.4-7.6c-8.4,14-26.4,29.6-42,29.6c-8,0-15.6-4-21.2-14c-4-7.2-5.6-15.2-5.6-24
		c0-26.4,15.2-57.2,32.4-70.9c8-6.8,17.6-10.4,26-10.4c12,0,22.4,7.6,25.6,24c2.4-7.2,4.4-14.4,6.4-22c0.4-1.2,2.4-1.6,5.2-1.6
		c8,0,22,3.6,22,7.6v0.4c-0.8,3.6-2,6-2.4,9.2c-4,12-8.8,28.4-12.4,44.4c-3.2,13.6-5.6,23.6-5.6,28.4c0,2.4,0.4,3.6,1.6,3.6
		c2.8,0,8.4-6,19.6-20c8.8-10.8,16-22.4,21.6-34.8c0.4-1.2,1.6-1.6,2.4-1.6l1.6,0.4c1.2,0.4,1.6,1.6,1.6,2.8v0.8
		c-10.4,22-25.2,46.8-41.6,64c-8.8,9.2-16.8,13.6-22.8,13.6C293.2,198.6,288.4,191,288.4,176.6z M274.7,168.2
		c9.2-13.6,16.8-36.4,16.8-54.4l-0.4-6.8c-1.2-9.6-4-13.6-8-13.6c-3.2,0-7.2,2.8-12,8.4c-12,14.4-22.4,38.4-22.4,58.8
		c0,4.4,0.4,8.4,1.2,12c2,8,4.8,10.8,8,10.8C263.5,183.4,269.5,176.2,274.7,168.2z"/>
	<path class="st0" d="M398.4,190.2L447.7,6.1c0.4-1.2,2.8-1.6,6-1.6c8,0,21.2,3.2,21.2,7.2l-49.2,184.5c-0.4,1.6-3.2,2-6.4,2
		C411.2,198.2,398.4,194.6,398.4,190.2z"/>
	<path class="st0" d="M442.5,190.2l28.8-108.5c0.4-1.2,2.4-2,5.6-2c8,0,21.6,4,21.6,7.2v0.4c-9.2,40-1.2,5.2-12,44.8
		c12-16.4,34.8-47.6,61.2-52l4-0.4c10.4,0,13.6,9.6,13.6,19.6c0,8-1.6,16-3.2,21.2c-3.6,12.4-7.2,26-9.2,38.4
		c-0.8,4-0.8,6.8-0.8,8.8c0,3.2,0.4,4.8,1.6,4.8c3.6,0,12-12,18.8-20.4c8.8-10.4,15.6-21.6,21.2-33.6c0.4-1.2,1.6-1.6,2.8-1.6
		l1.6,0.4c0.8,0.4,1.6,1.6,1.6,2.4l-0.4,1.2c-10.4,22.4-24.8,46.8-41.6,64c-5.6,5.6-14.8,13.2-22.8,13.2c-4.4,0-8-2-10.8-8
		c-1.2-2.8-1.6-6.8-1.6-11.6c0-15.6,5.2-38.8,11.2-59.2c2-7.2,2.8-12.4,2.8-15.6c0-3.6-1.2-5.2-2.8-5.2c-6.8,0-24.8,24-32.8,34.8
		c-13.6,18.4-25.6,40.4-31.2,62.8c-0.4,1.6-3.2,2.4-6.4,2.4C455.3,198.6,442.5,194.6,442.5,190.2z"/>
	<path class="st0" d="M578.6,190.2c-0.8-1.6-1.2-4-1.2-7.2c0-23.2,16-84.9,28.4-129.3H595c-2,0-2.8-1.6-2.8-4c0-4,2.4-9.6,5.2-9.6
		h12l9.6-34c0.4-1.2,2.4-2,5.2-2c8,0,21.2,4,21.2,8v0.8l-7.6,27.2h12c2,0,2.4,1.6,2.4,3.6c0,4-2.8,10-5.2,10h-12.8
		c-8,28-17.6,64.4-23.2,92.1c-2.4,12-4,20-4,24.4c0,2,0.4,3.2,1.2,3.2c2.4,0,8-6.4,18.8-20c8.4-10.8,15.6-22.4,21.2-34.8
		c0.4-1.2,1.6-1.6,2.4-1.6l1.6,0.4c1.2,0.4,2,1.6,2,2.4l-0.4,1.2c-10,22-24.8,46.8-41.6,64c-5.6,5.6-14.8,13.2-22.8,13.2
		C585,198.2,581.4,196.2,578.6,190.2z"/>
	<path class="st0" d="M631.8,180.2c-2.8-5.2-4-11.6-4-17.6c0-29.2,25.2-64.8,48-76.5c7.6-3.6,14.4-5.2,20.4-5.2c14.8,0,24,9.6,24,24
		c0,5.2-1.2,11.2-4,17.6c-7.6,17.6-26.8,34.4-59.2,38.4v2.8c0,4.8,0.8,9.6,3.2,13.6c2.4,5.2,6.8,6.8,11.6,6.8
		c9.6,0,22.4-7.2,28.8-11.6c19.2-13.2,34.4-34,46-54c0.4-1.2,1.6-1.6,2.8-1.6l1.2,0.4c1.2,0.4,1.6,1.6,1.6,2.4l-0.4,1.6
		c-15.6,27.2-40.4,62.4-70.9,73.7c-5.2,2-10.8,2.8-16.4,2.8C651.4,197.8,638.2,192.6,631.8,180.2z M703.8,118.6
		c2.4-6,3.6-11.6,3.6-16.4c0-5.2-2-9.2-6-9.2c-2.8,0-6.4,1.6-11.2,5.6c-14.8,12-26.4,30.4-31.2,48.4
		C678.6,144.2,696.6,137.4,703.8,118.6z"/>
	<path class="st0" d="M747.9,245.9v-2.4c0.8-22.4,16.4-42,38-47.6l6-21.6c-9.2,13.2-24.8,24-38.8,24c-8.4,0-16-4-21.6-13.6
		c-4-6.8-5.6-14.8-5.6-23.6c0-27.6,17.2-61.2,36.4-74.1c7.2-5.2,15.2-7.6,22.4-7.6c12.4,0,22.8,8,25.6,24.8l6.4-22.8
		c0.4-1.6,3.2-2.4,6.8-2.4c8.4,0,20.4,3.2,20.4,8l-26.4,98.5c22-13.2,37.6-43.6,48.4-66.8c0.4-1.2,1.6-1.6,2.8-1.6l1.6,0.4
		c0.8,0.4,1.6,1.6,1.6,2.4l-0.4,1.2c-9.6,20.8-35.6,74.1-58.4,81.3c-5.2,17.6-12,37.6-22,53.2c-8,12.4-17.2,17.6-24.8,17.6
		C755.9,273.1,747.9,263.1,747.9,245.9z M781.1,168.2c8.8-13.6,16.4-35.6,16.4-53.6c0-2.8,0-5.2-0.4-7.6c-1.2-9.6-3.6-13.6-7.6-13.6
		c-3.2,0-7.2,2.8-12,8.4c-12.4,14.4-22.8,38-22.8,58.4c0,4,0.4,8,1.2,11.6c1.6,8.4,4.8,11.6,8.4,11.6
		C769.5,183.4,775.9,175.8,781.1,168.2z M767.9,244.3c5.6-10.8,10-22,13.6-33.2c-12.8,5.6-18.4,16-20,30l-0.4,7.2
		c0,2.8,0.4,4.4,1.2,4.4C763.1,252.7,765.1,249.9,767.9,244.3z"/>
	<path class="st0" d="M841.9,190.2l28.8-108.9c0.4-1.2,2-2,4.4-2c7.6,0,22.4,6,22.4,9.2L886.8,129c10.4-14.8,30-44.8,55.2-49.2h2.8
		c4.4,0,8,1.6,10.4,6c2,4,2.8,7.6,2.8,11.2c0,7.6-3.6,14.8-3.6,19.2c0,4,2.4,6,10,6.4c5.6,0,10.4-1.6,14.8-4.8
		c0.8-0.8,1.6-0.8,2.4-0.8s1.6,0,2,0.8c0.4,0.8,0.4,1.6,0.4,2c0,0.8,0,1.6-0.8,2.4c-8.8,6.8-17.6,9.6-26,9.6
		c-17.2,0-30.4-10.8-30.4-16.4v-0.8c1.6-5.6,2.4-9.2,2.4-11.6c0-2.4-0.8-3.2-2-3.2c-6,0-25.6,29.6-30,36c-12,18-22.4,38.8-28,60.4
		c-0.4,1.6-3.2,2.4-6.4,2.4C854.7,198.6,841.9,194.6,841.9,190.2z"/>
	<path class="st0" d="M1026.5,176.6l0.4-7.6c-8.4,14-26.4,29.6-42,29.6c-8,0-15.6-4-21.2-14c-4-7.2-5.6-15.2-5.6-24
		c0-26.4,15.2-57.2,32.4-70.9c8-6.8,17.6-10.4,26-10.4c12,0,22.4,7.6,25.6,24c2.4-7.2,4.4-14.4,6.4-22c0.4-1.2,2.4-1.6,5.2-1.6
		c8,0,22,3.6,22,7.6v0.4c-0.8,3.6-2,6-2.4,9.2c-4,12-8.8,28.4-12.4,44.4c-3.2,13.6-5.6,23.6-5.6,28.4c0,2.4,0.4,3.6,1.6,3.6
		c2.8,0,8.4-6,19.6-20c8.8-10.8,16-22.4,21.6-34.8c0.4-1.2,1.6-1.6,2.4-1.6l1.6,0.4c1.2,0.4,1.6,1.6,1.6,2.8v0.8
		c-10.4,22-25.2,46.8-41.6,64c-8.8,9.2-16.8,13.6-22.8,13.6C1031.3,198.6,1026.5,191,1026.5,176.6z M1012.9,168.2
		c9.2-13.6,16.8-36.4,16.8-54.4l-0.4-6.8c-1.2-9.6-4-13.6-8-13.6c-3.2,0-7.2,2.8-12,8.4c-12,14.4-22.4,38.4-22.4,58.8
		c0,4.4,0.4,8.4,1.2,12c2,8,4.8,10.8,8,10.8C1001.6,183.4,1007.6,176.2,1012.9,168.2z"/>
	<path class="st0" d="M1082.1,190.2c-0.8-1.6-0.8-4-0.8-7.2c0-34,35.2-154.5,41.2-176.9c0.4-1.2,2.4-2,5.2-2c8,0,21.6,4.4,21.6,8.4
		v0.4c-5.2,16.8-25.2,86.9-34.8,132.9c-2.4,12-4,20-4,24.4c0,2,0.4,3.2,1.2,3.2c2.4,0,8-6.4,18.8-20c8.8-10.8,15.6-22.4,21.6-34.8
		c0.4-1.2,1.2-1.6,2.4-1.6l1.2,0.4c1.2,0.4,2,1.6,2,2.4l-0.4,1.2c-10,22-24.8,46.8-41.6,64c-5.6,5.6-14.8,13.2-22.8,13.2
		C1088.5,198.2,1084.9,196.2,1082.1,190.2z"/>
</g>
</svg>
