<?xml version="1.0" encoding="UTF-8"?>
<svg xmlns="http://www.w3.org/2000/svg" id="Layer_1" data-name="Layer 1" viewBox="0 0 64 64" width="512" height="512"><path d="M20.962,48c0-3.859-2.691-7-6-7s-6,3.141-6,7,2.691,7,6,7S20.962,51.859,20.962,48Zm-10,0c0-2.757,1.794-5,4-5s4,2.243,4,5-1.795,5-4,5S10.962,50.757,10.962,48Z"/><path d="M56,21.758V12a2,2,0,0,0,2-2V8a2,2,0,0,0-2-2H54.358l.618-2.783A1,1,0,0,0,54,2H44a1,1,0,0,0-.976,1.217L43.642,6H42a2,2,0,0,0-2,2v2H17a1,1,0,0,0-1,1v4a1,1,0,0,0,1,1h2v2H15a2,2,0,0,0-2,2v2.24a8.991,8.991,0,0,0-5.4,3.578c-1.674,2.376-2,5.358-2.278,7.989l-.03.27a35.363,35.363,0,0,1-1.8,8.381L2.8,44.37A13.375,13.375,0,0,0,3.777,55.6a12.591,12.591,0,0,0,8.628,6.169q.474.087.958.141a14.3,14.3,0,0,0,1.6.089H58a4,4,0,0,0,4-4V36.242a18.367,18.367,0,0,0-5.414-13.07A2.011,2.011,0,0,1,56,21.758ZM45.247,4h7.506l-.444,2H45.691Zm6.617,4L51.2,11H46.8l-.666-3ZM42,8h2.087l.937,4.217A1,1,0,0,0,46,13h6a1,1,0,0,0,.976-.783L53.913,8H56v2H55a1,1,0,0,0-1,1v7H44V11a1,1,0,0,0-1-1H42ZM18,12H42v2H18Zm3,4H42v2H21Zm21,4v1.758a2.011,2.011,0,0,1-.586,1.414A18.624,18.624,0,0,0,39.461,25.5a11.981,11.981,0,0,0-17.3.386A8.185,8.185,0,0,0,16.01,22.06,9.017,9.017,0,0,0,15,22.013V20ZM38,60a2.674,2.674,0,0,1-2.106-1.157c-.008-.014-.02-.025-.029-.039A4.742,4.742,0,0,1,35,56c0-2.206,1.346-4,3-4s3,1.794,3,4S39.654,60,38,60ZM27,57c0-1.654,1.794-3,4-3a4.859,4.859,0,0,1,2.164.5A7.134,7.134,0,0,0,33,56a6.853,6.853,0,0,0,.749,3.142A4.7,4.7,0,0,1,31,60C28.794,60,27,58.654,27,57Zm6.866-4.37a6.907,6.907,0,0,0-6.063.146,13.349,13.349,0,0,0,.124-7.189A11.87,11.87,0,0,0,36,44.91v5.6A5.362,5.362,0,0,0,33.866,52.63ZM36,36.242v6.4a10.118,10.118,0,0,1-8.909.55l-.121-.3A45.983,45.983,0,0,1,24.712,34.1c-.236-1.255-.48-2.553-.765-3.824-.044-.2-.092-.4-.143-.6h0a14.513,14.513,0,0,0-.632-1.872,9.954,9.954,0,0,1,15.177-.568A18.364,18.364,0,0,0,36,36.242ZM12.767,59.8a10.451,10.451,0,0,1-7.255-5.2,11.375,11.375,0,0,1-.831-9.553l.694-1.912a37.326,37.326,0,0,0,1.908-8.848l.029-.271c.27-2.506.549-5.1,1.925-7.05A7.026,7.026,0,0,1,14.983,24a7.2,7.2,0,0,1,.8.045c3.067.349,5.114,2.413,6.084,6.137.045.174.088.349.127.529.278,1.238.518,2.518.751,3.757a47.534,47.534,0,0,0,2.37,9.17l.267.659v0l.143.352a11.017,11.017,0,0,1-3.153,12.786,11.965,11.965,0,0,1-8.791,2.485C13.309,59.893,13.036,59.852,12.767,59.8ZM23.61,59.01a12.065,12.065,0,0,0,1.448-1.351A4.565,4.565,0,0,0,26.211,60H22.154A13.979,13.979,0,0,0,23.61,59.01ZM60,58a2,2,0,0,1-2,2H41.716A6.682,6.682,0,0,0,43,56c0-3.309-2.243-6-5-6V36.242a16.381,16.381,0,0,1,4.828-11.656A4.022,4.022,0,0,0,44,21.758V20H54v1.758a4.022,4.022,0,0,0,1.172,2.828A16.381,16.381,0,0,1,60,36.242Z"/><path d="M52,56a1,1,0,0,0,0,2h3a3,3,0,0,0,3-3V45a1,1,0,0,0-2,0V55a1,1,0,0,1-1,1Z"/><path d="M48,56H47a1,1,0,0,0,0,2h1a1,1,0,0,0,0-2Z"/><path d="M30.122,27.521c-.428.785-4.124,7.751-2.246,10.917A3.357,3.357,0,0,0,31,40a3.357,3.357,0,0,0,3.124-1.562C36,35.272,32.306,28.306,31.878,27.521A1.041,1.041,0,0,0,30.122,27.521Zm2.282,9.9c-.149.25-.456.583-1.4.583s-1.255-.333-1.4-.583c-.751-1.264.212-4.5,1.4-7.159C32.192,32.914,33.155,36.15,32.4,37.417Z"/></svg>
