<?xml version="1.0" encoding="UTF-8"?>
<svg xmlns="http://www.w3.org/2000/svg" xmlns:xlink="http://www.w3.org/1999/xlink" version="1.1" id="Capa_1" x="0px" y="0px" viewBox="0 0 511 511" style="enable-background:new 0 0 511 511;" xml:space="preserve" width="512" height="512">
<g>
	<path style="fill:none;stroke:#000000;stroke-width:20;stroke-linecap:round;stroke-linejoin:round;stroke-miterlimit:10;" d="&#10;&#9;&#9;M441.785,379.938c-0.331,0-0.658,0.014-0.986,0.025v-95.522h-57.111v95.522c-0.328-0.011-0.655-0.025-0.986-0.025&#10;&#9;&#9;c-16.315,0-29.541,13.226-29.541,29.541s13.226,29.541,29.541,29.541c16.315,0,29.541-13.226,29.541-29.541&#10;&#9;&#9;c0-0.646-0.028-1.285-0.069-1.92h0.138c-0.041,0.636-0.069,1.275-0.069,1.92c0,16.315,13.226,29.541,29.541,29.541&#10;&#9;&#9;c16.315,0,29.541-13.226,29.541-29.541S458.101,379.938,441.785,379.938z"/>
	<path style="fill:none;stroke:#000000;stroke-width:20;stroke-linecap:round;stroke-linejoin:round;stroke-miterlimit:10;" d="&#10;&#9;&#9;M440.799,284.441l49.308-87.123c15.357-27.135,14.416-60.545-2.444-86.773l0,0c-15.452-24.036-42.065-38.566-70.639-38.566h-9.56&#10;&#9;&#9;c-28.574,0-55.187,14.53-70.639,38.566l0,0c-16.86,26.228-17.802,59.638-2.444,86.773l49.308,87.123"/>
	<path style="fill:none;stroke:#000000;stroke-width:20;stroke-linecap:round;stroke-linejoin:round;stroke-miterlimit:10;" d="&#10;&#9;&#9;M269.37,200.751l0.01-27.668c-1.721-66.159-64.444-114.541-128.46-97.75c-0.874,0.229-1.747,0.47-2.62,0.723&#10;&#9;&#9;c-42.892,12.419-71.814,49.732-75.607,91.675c-1.909,21.101-10.375,40.961-23.666,57.461&#10;&#9;&#9;c-18.524,22.994-29.462,52.354-29.013,84.283c0.996,70.775,58.724,128.518,129.498,129.532&#10;&#9;&#9;c73.475,1.053,129.83-58.192,129.83-131.426l0.003-15.71"/>
	<path style="fill:none;stroke:#000000;stroke-width:20;stroke-linecap:round;stroke-linejoin:round;stroke-miterlimit:10;" d="&#10;&#9;&#9;M141.44,397.528c-0.443,0-0.89-0.003-1.334-0.01c-48.177-0.691-87.925-40.449-88.604-88.628&#10;&#9;&#9;c-0.3-21.247,6.559-41.188,19.836-57.667c18.766-23.295,30.066-50.874,32.678-79.754c2.387-26.381,20.373-48.188,45.823-55.557&#10;&#9;&#9;c0.554-0.161,1.078-0.305,1.602-0.443c5.056-1.326,10.195-1.997,15.28-1.997c32.864,0,60.309,27.225,61.18,60.689l0,133.91&#10;&#9;&#9;c-0.128,23.843-5.987,46.241-22.86,63.114c-16.987,16.987-39.573,26.342-63.596,26.342&#10;&#9;&#9;C141.443,397.528,141.442,397.528,141.44,397.528z"/>
	
		<circle style="fill:none;stroke:#000000;stroke-width:20;stroke-linecap:round;stroke-linejoin:round;stroke-miterlimit:10;" cx="144.36" cy="319.498" r="30.483"/>
	
		<line style="fill:none;stroke:#000000;stroke-width:20;stroke-linecap:round;stroke-linejoin:round;stroke-miterlimit:10;" x1="269.38" y1="246.393" x2="269.38" y2="246.393"/>
</g>















</svg>
