<?xml version="1.0" encoding="UTF-8" standalone="no"?>
<!-- Created with Inkscape (http://www.inkscape.org/) -->

<svg
   version="1.1"
   id="svg2787"
   xml:space="preserve"
   width="682.66669"
   height="682.66669"
   viewBox="0 0 682.66669 682.66669"
   xmlns="http://www.w3.org/2000/svg"
   xmlns:svg="http://www.w3.org/2000/svg"><defs
     id="defs2791"><clipPath
       clipPathUnits="userSpaceOnUse"
       id="clipPath2801"><path
         d="M 0,512 H 512 V 0 H 0 Z"
         id="path2799" /></clipPath></defs><g
     id="g2793"
     transform="matrix(1.3333333,0,0,-1.3333333,0,682.66667)"><g
       id="g2795"><g
         id="g2797"
         clip-path="url(#clipPath2801)"><g
           id="g2803"
           transform="translate(91.0977,10)"><path
             d="m 0,0 c 44.673,0 81.126,36.453 81.126,81.126 0,44.673 -36.453,81.098 -81.126,81.098 -44.673,0 -81.098,-36.425 -81.098,-81.098 C -81.098,36.453 -44.673,0 0,0 Z"
             style="fill:none;stroke:#000000;stroke-width:20;stroke-linecap:round;stroke-linejoin:round;stroke-miterlimit:10;stroke-dasharray:none;stroke-opacity:1"
             id="path2805" /></g><g
           id="g2807"
           transform="translate(61.3057,120.918)"><path
             d="M 0,0 59.612,-59.612"
             style="fill:none;stroke:#000000;stroke-width:20;stroke-linecap:round;stroke-linejoin:round;stroke-miterlimit:10;stroke-dasharray:none;stroke-opacity:1"
             id="path2809" /></g><g
           id="g2811"
           transform="translate(120.918,120.918)"><path
             d="M 0,0 -59.612,-59.612"
             style="fill:none;stroke:#000000;stroke-width:20;stroke-linecap:round;stroke-linejoin:round;stroke-miterlimit:10;stroke-dasharray:none;stroke-opacity:1"
             id="path2813" /></g><g
           id="g2815"
           transform="translate(99.4883,302.5869)"><path
             d="m 0,0 c -27.496,3.146 -54.141,17.177 -74.663,41.923 35.403,39.06 85.944,48.556 128.464,29.026 -19.56,42.52 -10.064,93.031 28.997,128.464 24.774,-20.522 38.777,-47.168 41.952,-74.663"
             style="fill:none;stroke:#000000;stroke-width:20;stroke-linecap:round;stroke-linejoin:round;stroke-miterlimit:10;stroke-dasharray:none;stroke-opacity:1"
             id="path2817" /></g><g
           id="g2819"
           transform="translate(82.2822,380.0273)"><path
             d="M 0,0 C -29.083,24.689 -45.864,62.984 -42.718,107.232 1.53,110.379 39.826,93.599 64.515,64.516"
             style="fill:none;stroke:#000000;stroke-width:20;stroke-linecap:round;stroke-linejoin:round;stroke-miterlimit:10;stroke-dasharray:none;stroke-opacity:1"
             id="path2821" /></g><g
           id="g2823"
           transform="translate(157.1152,244.959)"><path
             d="m 0,0 c -27.495,3.146 -54.141,17.178 -74.663,41.924 35.404,39.06 85.944,48.556 128.464,29.026 -19.559,42.519 -10.034,93.031 29.026,128.464 24.746,-20.522 38.748,-47.168 41.923,-74.663"
             style="fill:none;stroke:#000000;stroke-width:20;stroke-linecap:round;stroke-linejoin:round;stroke-miterlimit:10;stroke-dasharray:none;stroke-opacity:1"
             id="path2825" /></g><g
           id="g2827"
           transform="translate(358.9668,158.5605)"><path
             d="m 0,0 c 1.445,1.305 2.862,2.665 4.224,4.025 0.17,0.17 0.368,0.34 0.538,0.511 0.17,0.17 0.34,0.34 0.51,0.538 1.361,1.361 2.693,2.779 4.025,4.224 H 9.269 C 52.837,57.656 48.131,127.5 -3.771,170.558 -42.831,135.125 -52.327,84.613 -32.797,42.094 -75.315,61.624 -125.828,52.129 -161.26,13.067 -118.231,-38.834 -48.387,-43.539 -0.028,0 Z"
             style="fill:none;stroke:#000000;stroke-width:20;stroke-linecap:round;stroke-linejoin:round;stroke-miterlimit:10;stroke-dasharray:none;stroke-opacity:1"
             id="path2829" /></g><g
           id="g2831"
           transform="translate(214.7422,187.332)"><path
             d="m 0,0 c -27.495,3.146 -54.141,17.178 -74.663,41.924 35.433,39.06 85.945,48.556 128.464,29.026 -19.53,42.519 -10.034,93.031 29.026,128.463 24.746,-20.522 38.749,-47.167 41.924,-74.663"
             style="fill:none;stroke:#000000;stroke-width:20;stroke-linecap:round;stroke-linejoin:round;stroke-miterlimit:10;stroke-dasharray:none;stroke-opacity:1"
             id="path2833" /></g><g
           id="g2835"
           transform="translate(471.3018,55.4951)"><path
             d="M 0,0 30.698,-30.67 M -318.013,318.041 -63.438,63.467"
             style="fill:none;stroke:#000000;stroke-width:20;stroke-linecap:round;stroke-linejoin:round;stroke-miterlimit:10;stroke-dasharray:none;stroke-opacity:1"
             id="path2837" /></g><g
           id="g2839"
           transform="translate(439.5537,87.2139)"><path
             d="M 0,0 -0.028,0.028"
             style="fill:none;stroke:#000000;stroke-width:20;stroke-linecap:round;stroke-linejoin:round;stroke-miterlimit:10;stroke-dasharray:none;stroke-opacity:1"
             id="path2841" /></g></g></g></g></svg>
