<svg height="512" viewBox="0 0 512 512" width="512" xmlns="http://www.w3.org/2000/svg"><g id="Layer_19" data-name="Layer 19"><path d="m24 434.359 96 54.859v-109.576l-96-54.857z"/><path d="m184 431v-78.785l-48 27.427v109.575l70.875-40.5-18.844-10.768a8 8 0 0 1 -4.031-6.949z"/><path d="m307.969 232.055 68.031 38.875v-27.288l-96-54.857v54.715l20.031-11.446a7.992 7.992 0 0 1 7.938.001z"/><path d="m200 426.359 96 54.859v-109.576l-96-54.857z"/><path d="m479.875 175.001-95.875-54.786-95.875 54.786 95.875 54.784z"/><path d="m184 303a8 8 0 0 1 4.031-6.945l4.847-2.77-64.878-37.07-95.878 54.785 95.878 54.789 56-32z"/><path d="m304 248.215-95.878 54.785 95.878 54.789 95.878-54.789z"/><path d="m392 243.642v36.431l27.969 15.982a8 8 0 0 1 4.031 6.945v31.927l64-36.568v-109.574z"/><path d="m312 481.218 96-54.859v-109.574l-96 54.857z"/><path d="m56 160.373a22.627 22.627 0 0 0 38.627 16l41.373-41.373 41.373 41.373a22.627 22.627 0 0 0 32-32l-41.373-41.373 41.373-41.373a22.627 22.627 0 0 0 -32-32l-41.373 41.373-41.373-41.373a22.627 22.627 0 0 0 -32 32l41.373 41.373-41.373 41.373a22.627 22.627 0 0 0 -6.627 16z"/><path d="m464 367h-8a8 8 0 0 0 0 16h8a8 8 0 0 0 0-16z"/><path d="m448 447h-8a8 8 0 0 0 0 16h8a8 8 0 0 0 0-16z"/><path d="m376 495h-8a8 8 0 0 0 0 16h8a8 8 0 0 0 0-16z"/><path d="m208 231a8 8 0 0 0 0 16h8a8 8 0 0 0 0-16z"/></g></svg>