<svg id="Layer_1" enable-background="new 0 0 68 68" viewBox="0 0 68 68" xmlns="http://www.w3.org/2000/svg"><g><path d="m41.09 44.12v-17.6c0-3.3-1.28-6.4-3.61-8.73-1.95-1.95-3.03-4.55-3.03-7.31v-2.05h.11c1.16 0 2.11-.95 2.11-2.11v-1.15c0-1.75-1.42-3.17-3.17-3.17h-5.12v2h5.12c.64 0 1.17.52 1.17 1.17v1.15c0 .06-.05.11-.11.11h-11.08c-.06 0-.11-.05-.11-.11v-1.15c.01-.65.53-1.17 1.17-1.17v-2c-1.75 0-3.17 1.42-3.17 3.17v1.15c0 1.16.95 2.11 2.11 2.11h.11v2.05c0 2.76-1.08 5.36-3.03 7.31-2.33 2.33-3.61 5.43-3.61 8.73v27.41c0 1.16.95 2.11 2.11 2.11h10.12c.5 5.57 5.2 9.96 10.91 9.96v-2c-4.94 0-8.96-4.02-8.96-8.96s4.02-8.96 8.96-8.96 8.96 4.02 8.96 8.96c0 3.22-1.74 6.21-4.55 7.8l.99 1.74c3.43-1.95 5.56-5.6 5.56-9.54 0-5.71-4.38-10.41-9.96-10.92zm-2-12.91c-.95.45-2.5.68-3.43.68-1.93 0-4.03-.43-6.25-.89l-1.21-.25-.39 1.96 1.2.24c2.22.46 4.51.93 6.65.93.62 0 2.09-.12 3.43-.55v10.78c-5.25.48-9.44 4.67-9.91 9.91h-10.13c-.06 0-.11-.05-.11-.11v-21.4c1.11-.35 2.35-.51 3.77-.47l.06-2c-1.4-.04-2.66.1-3.83.39v-3.9c0-2.76 1.08-5.36 3.03-7.31 2.33-2.33 3.61-5.43 3.61-8.73v-2.06h6.86v2.05c0 3.3 1.28 6.4 3.61 8.73 1.95 1.95 3.03 4.55 3.03 7.31v4.69z"/><path d="m36.88 59.66 3.21-3.21 3.21 3.21 1.41-1.42-3.21-3.2 3.21-3.21-1.41-1.42-3.21 3.21-3.21-3.21-1.41 1.42 3.21 3.21-3.21 3.2z"/></g></svg>