<?xml version="1.0" encoding="UTF-8" standalone="no"?>
<!-- Created with Inkscape (http://www.inkscape.org/) -->

<svg
   version="1.1"
   id="svg8526"
   xml:space="preserve"
   width="682.66669"
   height="682.66669"
   viewBox="0 0 682.66669 682.66669"
   xmlns="http://www.w3.org/2000/svg"
   xmlns:svg="http://www.w3.org/2000/svg"><defs
     id="defs8530"><clipPath
       clipPathUnits="userSpaceOnUse"
       id="clipPath8540"><path
         d="M 0,512 H 512 V 0 H 0 Z"
         id="path8538" /></clipPath></defs><g
     id="g8532"
     transform="matrix(1.3333333,0,0,-1.3333333,0,682.66667)"><g
       id="g8534"><g
         id="g8536"
         clip-path="url(#clipPath8540)"><g
           id="g8542"
           transform="translate(256,504.5)"><path
             d="m 0,0 v 0 c -137.243,0 -248.5,-111.257 -248.5,-248.5 0,-137.243 111.257,-248.5 248.5,-248.5 137.243,0 248.5,111.257 248.5,248.5 C 248.5,-111.257 137.243,0 0,0 Z"
             style="fill:none;stroke:#000000;stroke-width:15;stroke-linecap:round;stroke-linejoin:round;stroke-miterlimit:10;stroke-dasharray:none;stroke-opacity:1"
             id="path8544" /></g><g
           id="g8546"
           transform="translate(203.0635,154.8232)"><path
             d="M 0,0 H -27.719 V 70.838 H 0"
             style="fill:none;stroke:#000000;stroke-width:15;stroke-linecap:round;stroke-linejoin:round;stroke-miterlimit:10;stroke-dasharray:none;stroke-opacity:1"
             id="path8548" /></g><g
           id="g8550"
           transform="translate(201.5234,190.2422)"><path
             d="M 0,0 H -25.599"
             style="fill:none;stroke:#000000;stroke-width:15;stroke-linecap:round;stroke-linejoin:round;stroke-miterlimit:10;stroke-dasharray:none;stroke-opacity:1"
             id="path8552" /></g><g
           id="g8554"
           transform="translate(344.3408,154.8232)"><path
             d="M 0,0 C -3.154,8.323 -23.703,62.543 -26.847,70.838 L -53.692,0"
             style="fill:none;stroke:#000000;stroke-width:15;stroke-linecap:round;stroke-linejoin:round;stroke-miterlimit:10;stroke-dasharray:none;stroke-opacity:1"
             id="path8556" /></g><g
           id="g8558"
           transform="translate(301.6309,172.3447)"><path
             d="M 0,0 H 31.999"
             style="fill:none;stroke:#000000;stroke-width:15;stroke-linecap:round;stroke-linejoin:round;stroke-miterlimit:10;stroke-dasharray:none;stroke-opacity:1"
             id="path8560" /></g><g
           id="g8562"
           transform="translate(367.4492,154.8232)"><path
             d="M 0,0 V 70.838 L 46.461,0 v 70.838"
             style="fill:none;stroke:#000000;stroke-width:15;stroke-linecap:round;stroke-linejoin:round;stroke-miterlimit:10;stroke-dasharray:none;stroke-opacity:1"
             id="path8564" /></g><g
           id="g8566"
           transform="translate(269.5088,210.7822)"><path
             d="m 0,0 c -2.32,8.572 -10.154,14.879 -19.461,14.879 -11.134,0 -20.159,-9.026 -20.159,-20.16 v -30.518 c 0,-11.134 9.025,-20.16 20.159,-20.16 11.134,0 20.16,9.026 20.16,20.16 v 9.542 h -12.326"
             style="fill:none;stroke:#000000;stroke-width:15;stroke-linecap:round;stroke-linejoin:round;stroke-miterlimit:10;stroke-dasharray:none;stroke-opacity:1"
             id="path8568" /></g><g
           id="g8570"
           transform="translate(151.0967,225.6611)"><path
             d="M 0,0 C -2.425,-6.481 -24.034,-64.238 -26.503,-70.837 L -53.007,0"
             style="fill:none;stroke:#000000;stroke-width:15;stroke-linecap:round;stroke-linejoin:round;stroke-miterlimit:10;stroke-dasharray:none;stroke-opacity:1"
             id="path8572" /></g><g
           id="g8574"
           transform="translate(7.5,256)"><path
             d="M 0,0 V 0 C 0,-48.299 13.794,-93.37 37.636,-131.516 H 459.364 C 483.207,-93.37 497,-48.299 497,0 Z"
             style="fill:none;stroke:#000000;stroke-width:15;stroke-linecap:round;stroke-linejoin:round;stroke-miterlimit:10;stroke-dasharray:none;stroke-opacity:1"
             id="path8576" /></g><g
           id="g8578"
           transform="translate(474.5,256)"><path
             d="M 0,0 C 0,120.481 -98.018,218.5 -218.5,218.5 -338.98,218.5 -437,120.481 -437,0 Z"
             style="fill:none;stroke:#000000;stroke-width:15;stroke-linecap:round;stroke-linejoin:round;stroke-miterlimit:10;stroke-dasharray:none;stroke-opacity:1"
             id="path8580" /></g><g
           id="g8582"
           transform="translate(153.3008,428.3535)"><path
             d="m 0,0 c -10.692,1.187 -20.652,-5.788 -23.195,-16.241 -7.054,-29.002 -2.082,-60.774 16.383,-87.146 18.466,-26.371 46.622,-41.91 76.287,-45.201 10.692,-1.186 20.653,5.789 23.195,16.242 7.054,29.001 2.082,60.774 -16.384,87.145 C 57.82,-18.829 29.665,-3.291 0,0 Z"
             style="fill:none;stroke:#000000;stroke-width:15;stroke-linecap:round;stroke-linejoin:round;stroke-miterlimit:10;stroke-dasharray:none;stroke-opacity:1"
             id="path8584" /></g><g
           id="g8586"
           transform="translate(171.1396,378.1934)"><path
             d="M 0,0 84.86,-121.193"
             style="fill:none;stroke:#000000;stroke-width:15;stroke-linecap:round;stroke-linejoin:round;stroke-miterlimit:10;stroke-dasharray:none;stroke-opacity:1"
             id="path8588" /></g><g
           id="g8590"
           transform="translate(340.8604,378.1934)"><path
             d="M 0,0 -84.86,-121.193"
             style="fill:none;stroke:#000000;stroke-width:15;stroke-linecap:round;stroke-linejoin:round;stroke-miterlimit:10;stroke-dasharray:none;stroke-opacity:1"
             id="path8592" /></g><g
           id="g8594"
           transform="translate(273.5,38.2158)"><path
             d="M 0,0 C 63.964,5.096 120.255,37.842 156.871,86.269 H -191.871 C -155.256,37.842 -98.964,5.096 -35,0"
             style="fill:none;stroke:#000000;stroke-width:15;stroke-linecap:round;stroke-linejoin:round;stroke-miterlimit:10;stroke-dasharray:none;stroke-opacity:1"
             id="path8596" /></g><g
           id="g8598"
           transform="translate(372.7393,336.8545)"><path
             d="M 0,0 C 12.425,23.716 15.178,50.495 9.155,75.258 6.612,85.711 -3.348,92.686 -14.04,91.499 -43.706,88.208 -71.86,72.669 -90.326,46.298 c -18.466,-26.371 -23.438,-58.143 -16.384,-87.145 2.542,-10.453 12.503,-17.428 23.195,-16.242 23.006,2.552 45.101,12.476 62.475,29.1"
             style="fill:none;stroke:#000000;stroke-width:15;stroke-linecap:round;stroke-linejoin:round;stroke-miterlimit:10;stroke-dasharray:none;stroke-opacity:1"
             id="path8600" /></g></g></g></g></svg>
