<?xml version="1.0" encoding="UTF-8" standalone="no"?>
<!-- Created with Inkscape (http://www.inkscape.org/) -->

<svg
   version="1.1"
   id="svg2442"
   xml:space="preserve"
   width="682.66669"
   height="682.66669"
   viewBox="0 0 682.66669 682.66669"
   xmlns="http://www.w3.org/2000/svg"
   xmlns:svg="http://www.w3.org/2000/svg"><defs
     id="defs2446"><clipPath
       clipPathUnits="userSpaceOnUse"
       id="clipPath2456"><path
         d="M 0,512 H 512 V 0 H 0 Z"
         id="path2454" /></clipPath></defs><g
     id="g2448"
     transform="matrix(1.3333333,0,0,-1.3333333,0,682.66667)"><g
       id="g2450"><g
         id="g2452"
         clip-path="url(#clipPath2456)"><g
           id="g2458"
           transform="translate(60.7412,102.2813)"><path
             d="m 0,0 c 45.505,-57.722 116.053,-94.781 195.259,-94.781 137.242,0 248.5,111.257 248.5,248.5 0,137.243 -111.258,248.5 -248.5,248.5 -137.243,0 -248.5,-111.257 -248.5,-248.5 0,-43.785 11.339,-84.915 31.218,-120.642"
             style="fill:none;stroke:#000000;stroke-width:15;stroke-linecap:round;stroke-linejoin:round;stroke-miterlimit:10;stroke-dasharray:none;stroke-opacity:1"
             id="path2460" /></g><g
           id="g2462"
           transform="translate(95.0259,226.2549)"><path
             d="M 0,0 C 0,0 15.373,23.069 50.302,34.968 83.409,46.245 126.408,38.665 137.077,3.444 146.853,-28.826 120.043,-61.779 86.106,-57.71 40.253,-52.213 40.114,-5.521 0,0"
             style="fill:none;stroke:#000000;stroke-width:15;stroke-linecap:round;stroke-linejoin:round;stroke-miterlimit:10;stroke-dasharray:none;stroke-opacity:1"
             id="path2464" /></g><g
           id="g2466"
           transform="translate(172.3721,225.9316)"><path
             d="M 0,0 C 36.009,-5.845 74.655,-41.516 84.874,-78.652"
             style="fill:none;stroke:#000000;stroke-width:15;stroke-linecap:round;stroke-linejoin:round;stroke-miterlimit:10;stroke-dasharray:none;stroke-opacity:1"
             id="path2468" /></g><g
           id="g2470"
           transform="translate(370.0303,345.7969)"><path
             d="M 0,0 C 7.956,14.842 19.845,26.927 33.473,36.668"
             style="fill:none;stroke:#000000;stroke-width:15;stroke-linecap:round;stroke-linejoin:round;stroke-miterlimit:10;stroke-dasharray:none;stroke-opacity:1"
             id="path2472" /></g><g
           id="g2474"
           transform="translate(403.5029,382.4648)"><path
             d="m 0,0 c -32.981,12.477 -70.807,17.077 -105.146,7.597 -25.92,-7.156 -48.811,-24.058 -61.886,-47.736 -10.263,-18.588 -14.807,-42.454 -5.449,-62.34 10.98,-23.336 37.363,-37.543 62.792,-35.29 28.029,2.485 48.348,23.688 57.892,48.958 1.068,2.827 2.031,5.691 2.936,8.573"
             style="fill:none;stroke:#000000;stroke-width:15;stroke-linecap:round;stroke-linejoin:round;stroke-miterlimit:10;stroke-dasharray:none;stroke-opacity:1"
             id="path2476" /></g><g
           id="g2478"
           transform="translate(295.8574,327.4258)"><path
             d="M 0,0 C 0,0 -37.187,-18.324 -37.187,-88.188 V -230.435"
             style="fill:none;stroke:#000000;stroke-width:15;stroke-linecap:round;stroke-linejoin:round;stroke-miterlimit:10;stroke-dasharray:none;stroke-opacity:1"
             id="path2480" /></g></g></g></g></svg>
